<svg xmlns="http://www.w3.org/2000/svg" viewBox="0 0 268 100" width="268" height="100" role="img" aria-label="impyard">
  <title>impyard</title>
  <g transform="translate(8,15) scale(0.70)">
    <path d="M22 30 L44 50 L22 70" fill="none" stroke="#8C8375" stroke-width="7" stroke-linecap="round" stroke-linejoin="round"/>
    <path d="M52 40 L48 27 L58 37 Z" fill="#A82468"/>
    <path d="M74 40 L78 27 L68 37 Z" fill="#A82468"/>
    <rect x="52" y="40" width="24" height="34" rx="4" fill="#CE2F7F"/>
  </g>
  <!-- wordmark: JetBrains Mono Bold, converted to outlines (SIL OFL 1.1) -->
  <path transform="translate(88.0 62.0) scale(0.040000 -0.040000)" fill="#241C15" d="M76 0V114H268V437H101V550H388V114H558V0ZM318.0 642Q280.0 642 258.0 661.5Q236.0 681 236.0 714Q236.0 747 258.0 766.5Q280.0 786 318.0 786Q356.0 786 378.0 766.5Q400.0 747 400.0 714Q400.0 681 378.0 661.5Q356.0 642 318.0 642Z M652.0 0V550H754.0V476H775.0L758.0 458Q758.0 504 784.0 532.0Q810.0 560 851.0 560Q895.0 560 919.5 524.0Q944.0 488 944.0 427L922.0 476H956.0L943.0 458Q943.0 504 969.0 532.0Q995.0 560 1038.0 560Q1089.0 560 1119.0 522.0Q1149.0 484 1149.0 419V0H1039.0V414Q1039.0 441 1027.0 456.5Q1015.0 472 992.0 472Q970.0 472 957.5 457.0Q945.0 442 945.0 414V0H855.0V414Q855.0 442 843.0 457.0Q831.0 472 808.0 472Q785.0 472 773.5 457.0Q762.0 442 762.0 414V0Z M1277.0 -180V550H1399.0V445H1427.0L1399.0 416Q1399.0 483 1439.0 521.5Q1479.0 560 1547.0 560Q1630.0 560 1680.0 503.0Q1730.0 446 1730.0 350V201Q1730.0 137 1707.5 89.5Q1685.0 42 1644.0 16.0Q1603.0 -10 1547.0 -10Q1479.0 -10 1439.0 28.5Q1399.0 67 1399.0 134L1427.0 105H1398.0L1402.0 -26V-180ZM1503.0 98Q1551.0 98 1578.0 126.0Q1605.0 154 1605.0 206V344Q1605.0 396 1578.0 424.0Q1551.0 452 1503.0 452Q1456.0 452 1429.0 423.5Q1402.0 395 1402.0 344V206Q1402.0 155 1429.0 126.5Q1456.0 98 1503.0 98Z M1966.0 -180 2043.0 30 1838.0 550H1975.0L2077.0 269Q2085.0 246 2093.0 213.5Q2101.0 181 2105.0 160Q2110.0 181 2118.0 213.5Q2126.0 246 2134.0 269L2230.0 550H2362.0L2097.0 -180Z M2639.0 -10Q2554.0 -10 2505.0 35.0Q2456.0 80 2456.0 156Q2456.0 237 2510.0 281.0Q2564.0 325 2663.0 325H2800.0V372Q2800.0 412 2774.0 434.5Q2748.0 457 2703.0 457Q2662.0 457 2635.0 439.0Q2608.0 421 2603.0 390H2481.0Q2490.0 468 2551.0 514.0Q2612.0 560 2707.0 560Q2808.0 560 2866.5 509.5Q2925.0 459 2925.0 373V0H2804.0V96H2784.0L2804.0 123Q2804.0 62 2759.0 26.0Q2714.0 -10 2639.0 -10ZM2680.0 84Q2733.0 84 2766.5 111.0Q2800.0 138 2800.0 181V248H2665.0Q2627.0 248 2604.0 226.0Q2581.0 204 2581.0 168Q2581.0 129 2607.5 106.5Q2634.0 84 2680.0 84Z M3094.0 0V550H3212.0V445H3243.0L3206.0 381Q3206.0 470 3246.0 515.0Q3286.0 560 3364.0 560Q3453.0 560 3504.0 505.0Q3555.0 450 3555.0 353V313H3424.0V344Q3424.0 397 3396.5 426.0Q3369.0 455 3321.0 455Q3272.0 455 3245.5 426.0Q3219.0 397 3219.0 344V0Z M3853.0 -10Q3771.0 -10 3720.5 47.0Q3670.0 104 3670.0 200V349Q3670.0 446 3720.0 503.0Q3770.0 560 3853.0 560Q3921.0 560 3961.0 521.5Q4001.0 483 4001.0 416L3973.0 445H4002.0L3998.0 576V730H4123.0V0H4001.0V105H3973.0L4001.0 134Q4001.0 67 3961.0 28.5Q3921.0 -10 3853.0 -10ZM3897.0 98Q3945.0 98 3971.5 126.5Q3998.0 155 3998.0 206V344Q3998.0 395 3971.5 423.5Q3945.0 452 3897.0 452Q3849.0 452 3822.0 424.0Q3795.0 396 3795.0 344V206Q3795.0 154 3822.0 126.0Q3849.0 98 3897.0 98Z"/>
</svg>
